# xmcd
#
# Track frame offsets: 
#        150
#        22653
#        34938
#        45182
#        70238
#        78389
#        93296
#        106406
#        115565
#        145610
#        163956
#
# Disc length: 4047 seconds
#
# Revision: 1
# Processed by: cddbd v1.5.2PL0 Copyright (c) Steve Scherf et al.
# Submitted via: ExactAudioCopy v0.99pb5
#
DISCID=7c0fcd0b
DTITLE=Canibus - The Lost Freestyle Files
DYEAR=2003
DGENRE=Hip-Hop
TTITLE0=Rip The Jacker (LL Cool J Diss)
TTITLE1=DJ Clue Freestyle
TTITLE2=Freestyle
TTITLE3=Last Laugh
TTITLE4=Tony Touch Freestyle
TTITLE5=DJ Clue Freestyle '98
TTITLE6=Hot 97 Freestyle With Journalist
TTITLE7=MP3.com Freestyle
TTITLE8=Monday Night Mixtape Freestyle
TTITLE9=Wake Up Show Freestyle With Jurassic 5
TTITLE10=Hot 97 Freestyle With DMX and Noreaga
EXTD=
EXTT0=
EXTT1=
EXTT2=
EXTT3=
EXTT4=
EXTT5=
EXTT6=
EXTT7=
EXTT8=
EXTT9=
EXTT10=
PLAYORDER=
